<svg width="25" height="24" viewBox="0 0 25 24" fill="none" xmlns="http://www.w3.org/2000/svg">
<path d="M4.71875 4.37105L7.76844 7.42074C8.37809 6.78869 9.10815 6.28512 9.91555 5.93975C10.7229 5.59438 11.5913 5.4142 12.4695 5.40983C13.3476 5.40546 14.2178 5.577 15.0286 5.91432C15.8394 6.25164 16.5744 6.74791 17.1903 7.37386L20.2372 4.32277C19.2208 3.29734 18.0106 2.48425 16.6771 1.93079C15.3436 1.37734 13.9134 1.09456 12.4696 1.09893C11.0258 1.10329 9.59725 1.3947 8.2671 1.9562C6.93696 2.5177 5.73174 3.33809 4.72156 4.36964L4.71875 4.37105Z" fill="#F0432C"/>
<path d="M4.75933 19.6763L7.80621 16.6294C7.19673 16.0152 6.71439 15.2869 6.38681 14.486C6.05924 13.6852 5.89286 12.8276 5.89721 11.9624C5.90157 11.0972 6.07657 10.2413 6.41219 9.44378C6.7478 8.64628 7.23745 7.92283 7.85308 7.31484L4.80433 4.26562C3.78843 5.27408 2.98129 6.47291 2.42906 7.79354C1.87682 9.11418 1.59034 10.5307 1.58599 11.9622C1.58163 13.3936 1.8595 14.8119 2.40368 16.1358C2.94787 17.4598 3.74771 18.6635 4.75746 19.6781L4.75933 19.6763Z" fill="#FFBF00"/>
<path d="M14.6562 14.1487V14.1937H14.7012L14.6562 14.1487Z" fill="#24AA49"/>
<path d="M12.4766 22.8848C13.9099 22.8866 15.3295 22.6047 16.6533 22.0552C17.9771 21.5057 19.1791 20.6995 20.1898 19.6832L17.1406 16.6331C16.5294 17.2479 15.8027 17.7358 15.0023 18.0687C14.2018 18.4017 13.3435 18.5731 12.4766 18.5731C11.6096 18.5731 10.7513 18.4017 9.95084 18.0687C9.1504 17.7358 8.42369 17.2479 7.8125 16.6331L4.76562 19.6799C5.77582 20.6966 6.97727 21.5032 8.30071 22.0532C9.62414 22.6033 11.0434 22.8859 12.4766 22.8848Z" fill="#24AA49"/>
<path d="M23.2052 9.85913L14.7012 9.87085V14.1937H18.7249C18.3918 15.1287 17.852 15.9765 17.1457 16.6738L20.1949 19.7235C21.4716 18.4553 22.4146 16.8908 22.9399 15.1697C23.4651 13.4485 23.5563 11.6241 23.2052 9.85913Z" fill="#3384FC"/>
</svg>
