<svg width="38" height="28" viewBox="0 0 38 28" fill="none" xmlns="http://www.w3.org/2000/svg">
<path d="M32.0781 2.36479C32.0679 2.34499 32.051 2.32949 32.0304 2.32104C29.6476 1.22783 27.1332 0.448282 24.55 0.0019121C24.5265 -0.00245108 24.5023 0.000696574 24.4807 0.0109074C24.4591 0.0211182 24.4413 0.0378723 24.4298 0.0587871C24.0874 0.680218 23.7766 1.31853 23.4985 1.97129C20.7139 1.54859 17.8815 1.54859 15.0969 1.97129C14.817 1.31687 14.5012 0.678401 14.151 0.0587871C14.139 0.0383269 14.1211 0.0219586 14.0996 0.0118141C14.0782 0.00166961 14.0542 -0.00178091 14.0307 0.0019121C11.4472 0.447345 8.93262 1.22695 6.55023 2.3211C6.52983 2.32975 6.51262 2.34451 6.50098 2.36335C1.73666 9.47822 0.431538 16.4182 1.07179 23.2722C1.07359 23.289 1.07875 23.3052 1.08696 23.32C1.09518 23.3347 1.10628 23.3477 1.1196 23.3581C3.89382 25.4122 6.99681 26.9801 10.2962 27.9949C10.3194 28.0019 10.3442 28.0016 10.3673 27.994C10.3903 27.9865 10.4105 27.972 10.4251 27.9527C11.1337 26.9885 11.7616 25.9675 12.3024 24.9C12.3098 24.8854 12.3141 24.8693 12.3149 24.8529C12.3156 24.8365 12.3129 24.8201 12.3069 24.8049C12.3009 24.7896 12.2917 24.7757 12.28 24.7643C12.2682 24.7528 12.2541 24.7439 12.2387 24.7383C11.2486 24.3594 10.29 23.9027 9.37198 23.3725C9.3553 23.3627 9.34129 23.3489 9.3312 23.3324C9.3211 23.3159 9.31522 23.2972 9.31407 23.2779C9.31293 23.2586 9.31656 23.2393 9.32464 23.2217C9.33272 23.2041 9.34501 23.1888 9.36041 23.1771C9.55304 23.0328 9.74579 22.8827 9.92973 22.731C9.94607 22.7176 9.96584 22.7089 9.98682 22.7061C10.0078 22.7033 10.0292 22.7064 10.0485 22.715C16.0628 25.4598 22.5741 25.4598 28.5172 22.715C28.5366 22.7058 28.5582 22.7023 28.5795 22.7049C28.6007 22.7075 28.6209 22.716 28.6375 22.7296C28.8215 22.8812 29.0142 23.0328 29.2082 23.1771C29.2237 23.1887 29.2361 23.2039 29.2443 23.2214C29.2525 23.2389 29.2563 23.2582 29.2553 23.2775C29.2543 23.2968 29.2486 23.3156 29.2386 23.3321C29.2286 23.3487 29.2147 23.3626 29.1981 23.3725C28.2822 23.9072 27.3227 24.3636 26.33 24.7368C26.3146 24.7427 26.3006 24.7518 26.2889 24.7634C26.2772 24.7751 26.2681 24.7891 26.2622 24.8045C26.2563 24.8199 26.2537 24.8363 26.2546 24.8528C26.2555 24.8693 26.2599 24.8854 26.2675 24.9C26.8173 25.9615 27.4443 26.9812 28.1434 27.951C28.1575 27.9709 28.1776 27.9858 28.2008 27.9936C28.2239 28.0015 28.2489 28.0019 28.2723 27.9947C31.5776 26.9834 34.686 25.4153 37.4637 23.3581C37.4772 23.3482 37.4885 23.3356 37.4967 23.321C37.5049 23.3064 37.51 23.2903 37.5115 23.2736C38.278 15.3497 36.2282 8.4666 32.0781 2.36479ZM13.2006 19.0988C11.3899 19.0988 9.89785 17.4371 9.89785 15.3963C9.89785 13.3556 11.3609 11.6938 13.2006 11.6938C15.0547 11.6938 16.5322 13.37 16.5033 15.3962C16.5033 17.4371 15.0402 19.0988 13.2006 19.0988ZM25.4118 19.0988C23.6012 19.0988 22.1092 17.4371 22.1092 15.3963C22.1092 13.3556 23.5722 11.6938 25.4118 11.6938C27.266 11.6938 28.7435 13.37 28.7146 15.3962C28.7146 17.4371 27.266 19.0988 25.4118 19.0988Z" fill="#688CEC"/>
</svg>
