<svg width="22" height="22" viewBox="0 0 22 22" fill="none" xmlns="http://www.w3.org/2000/svg">
<path d="M11.0026 18.1109V13.6665M13.6693 16.3334L11.6311 18.5227C11.3348 18.8409 11.1867 19.0001 11.0026 19.0001C10.8185 19.0001 10.6704 18.8409 10.3741 18.5227L8.33594 16.3334" stroke="#688CEC" stroke-width="1.33333" stroke-linecap="round" stroke-linejoin="round"/>
<path d="M18.1124 11.0001H13.668M16.3346 13.6668L18.5239 11.6287C18.8421 11.3324 19.0013 11.1843 19.0013 11.0002C19.0013 10.8161 18.8421 10.6679 18.5239 10.3716L16.3346 8.3335" stroke="#688CEC" stroke-width="1.33333" stroke-linecap="round" stroke-linejoin="round"/>
<path d="M11.0026 8.3335L11.0026 3.88905M13.6693 5.66679L11.6311 3.47752C11.3348 3.15926 11.1867 3.00012 11.0026 3.00012C10.8185 3.00012 10.6704 3.15926 10.3741 3.47752L8.33594 5.66679" stroke="#688CEC" stroke-width="1.33333" stroke-linecap="round" stroke-linejoin="round"/>
<path d="M8.33524 11.0001L3.89079 11.0002M5.66862 8.3335L3.47936 10.3716C3.16109 10.6679 3.00195 10.8161 3.00195 11.0002C3.00195 11.1843 3.16109 11.3324 3.47936 11.6287L5.66862 13.6668" stroke="#688CEC" stroke-width="1.33333" stroke-linecap="round" stroke-linejoin="round"/>
</svg>
