<svg width="22" height="22" viewBox="0 0 22 22" fill="none" xmlns="http://www.w3.org/2000/svg">
<path d="M19.4857 10.1514C19.7559 10.5303 19.8911 10.7198 19.8911 11.0003C19.8911 11.2808 19.7559 11.4702 19.4857 11.8492C18.2714 13.5519 15.1704 17.2225 11.0022 17.2225C6.83397 17.2225 3.73292 13.5519 2.51865 11.8492C2.2484 11.4703 2.11328 11.2808 2.11328 11.0003C2.11328 10.7198 2.2484 10.5303 2.51865 10.1514C3.73292 8.44869 6.83397 4.77808 11.0022 4.77808C15.1704 4.77808 18.2714 8.44869 19.4857 10.1514Z" stroke="#688CEC" stroke-width="1.33333"/>
<path d="M13.6693 11.0003C13.6693 9.52757 12.4754 8.33366 11.0026 8.33366C9.52984 8.33366 8.33594 9.52757 8.33594 11.0003C8.33594 12.4731 9.52984 13.667 11.0026 13.667C12.4754 13.667 13.6693 12.4731 13.6693 11.0003Z" stroke="#688CEC" stroke-width="1.33333"/>
</svg>
