<svg width="22" height="22" viewBox="0 0 22 22" fill="none" xmlns="http://www.w3.org/2000/svg">
<path d="M2.55664 7.61094C2.64914 5.74452 2.92586 4.58085 3.75366 3.75305C4.58146 2.92525 5.74513 2.64853 7.61155 2.55603M19.4455 7.61094C19.353 5.74452 19.0763 4.58085 18.2485 3.75305C17.4207 2.92525 16.257 2.64853 14.3906 2.55603M14.3906 19.4449C16.257 19.3524 17.4207 19.0757 18.2485 18.2479C19.0763 17.4201 19.353 16.2564 19.4455 14.39M7.61154 19.4449C5.74513 19.3524 4.58146 19.0757 3.75366 18.2479C2.92586 17.4201 2.64914 16.2564 2.55664 14.39" stroke="#688CEC" stroke-width="1.33333" stroke-linecap="round" stroke-linejoin="round"/>
<path d="M14.868 11.1771L15.5282 11.0842L14.868 11.1771ZM13.2221 9.71431L13.2514 9.04829L13.2221 9.71431ZM13.2221 15.8417L13.2514 16.5077L13.2221 15.8417ZM14.868 14.3789L14.2079 14.286L14.868 14.3789ZM8.78178 9.71431L8.81109 10.3803L8.78178 9.71431ZM7.13586 11.1771L7.79603 11.2699L7.13586 11.1771ZM8.78178 15.8417L8.75247 16.5077L8.78178 15.8417ZM7.13586 14.3789L7.79603 14.286L7.13586 14.3789ZM8.11306 9.66688C8.11306 10.0351 8.41154 10.3336 8.77973 10.3336C9.14792 10.3336 9.4464 10.0351 9.4464 9.66688H8.11306ZM12.5575 9.66688C12.5575 10.0351 12.856 10.3336 13.2242 10.3336C13.5924 10.3336 13.8908 10.0351 13.8908 9.66688H12.5575ZM11.002 15.2224C10.2191 15.2224 9.50935 15.2064 8.81109 15.1757L8.75247 16.5077C9.47083 16.5393 10.2001 16.5558 11.002 16.5558V15.2224ZM13.1928 15.1757C12.4946 15.2064 11.7848 15.2224 11.002 15.2224V16.5558C11.8038 16.5558 12.5331 16.5393 13.2514 16.5077L13.1928 15.1757ZM15.5282 14.4718C15.6029 13.9405 15.6686 13.3694 15.6686 12.778H14.3353C14.3353 13.2756 14.2799 13.7738 14.2079 14.286L15.5282 14.4718ZM15.6686 12.778C15.6686 12.1866 15.6029 11.6155 15.5282 11.0842L14.2079 11.2699C14.2799 11.7821 14.3353 12.2804 14.3353 12.778H15.6686ZM11.002 10.3335C11.7848 10.3335 12.4946 10.3496 13.1928 10.3803L13.2514 9.04829C12.5331 9.01668 11.8038 9.00022 11.002 9.00022V10.3335ZM8.81109 10.3803C9.50935 10.3496 10.2191 10.3335 11.002 10.3335V9.00022C10.2001 9.00022 9.47083 9.01668 8.75247 9.04829L8.81109 10.3803ZM6.47569 11.0842C6.40097 11.6155 6.33529 12.1866 6.33529 12.778H7.66862C7.66862 12.2804 7.72399 11.7821 7.79603 11.2699L6.47569 11.0842ZM6.33529 12.778C6.33529 13.3694 6.40097 13.9405 6.47569 14.4718L7.79603 14.286C7.72399 13.7738 7.66862 13.2756 7.66862 12.778H6.33529ZM15.5282 11.0842C15.3697 9.95737 14.4046 9.09904 13.2514 9.04829L13.1928 10.3803C13.7232 10.4037 14.1415 10.798 14.2079 11.2699L15.5282 11.0842ZM13.2514 16.5077C14.4046 16.457 15.3697 15.5986 15.5282 14.4718L14.2079 14.286C14.1415 14.758 13.7232 15.1523 13.1928 15.1757L13.2514 16.5077ZM8.75247 9.04829C7.59933 9.09904 6.63418 9.95736 6.47569 11.0842L7.79603 11.2699C7.86241 10.798 8.28071 10.4037 8.81109 10.3803L8.75247 9.04829ZM8.81109 15.1757C8.28071 15.1523 7.86241 14.758 7.79603 14.286L6.47569 14.4718C6.63419 15.5986 7.59933 16.457 8.75247 16.5077L8.81109 15.1757ZM9.4464 9.66688V8.33355H8.11306V9.66688H9.4464ZM12.5575 8.33355V9.66688H13.8908V8.33355H12.5575ZM13.8908 8.33355C13.8908 6.73806 12.5974 5.44466 11.002 5.44466V6.77799C11.8611 6.77799 12.5575 7.47444 12.5575 8.33355H13.8908ZM9.4464 8.33355C9.4464 7.47444 10.1428 6.77799 11.002 6.77799V5.44466C9.40646 5.44466 8.11306 6.73806 8.11306 8.33355H9.4464Z" fill="#688CEC"/>
</svg>
