<svg width="33" height="32" viewBox="0 0 33 32" fill="none" xmlns="http://www.w3.org/2000/svg">
<g clip-path="url(#clip0_143_982)">
<path d="M16.2949 0C7.45836 0 0.294922 7.16344 0.294922 16C0.294922 24.8366 7.45836 32 16.2949 32C25.1315 32 32.2949 24.8366 32.2949 16C32.2949 7.16344 25.1315 0 16.2949 0ZM24.6111 10.121L21.7694 23.6875C21.735 23.8516 21.6599 24.0044 21.5511 24.1319C21.4422 24.2594 21.3031 24.3575 21.1464 24.4172C20.9897 24.4769 20.8206 24.4963 20.6545 24.4735C20.4884 24.4508 20.3307 24.3867 20.1958 24.2871L16.0623 21.2332L13.558 23.5958C13.5253 23.6267 13.4867 23.6508 13.4445 23.6666C13.4023 23.6824 13.3574 23.6897 13.3123 23.688C13.2673 23.6863 13.223 23.6756 13.1822 23.6566C13.1413 23.6376 13.1046 23.6107 13.0743 23.5774L13.0205 23.5182L13.4556 19.3073L21.2984 12.1416C21.3371 12.1062 21.3613 12.0576 21.366 12.0053C21.3706 11.953 21.3556 11.9009 21.3237 11.8592C21.2918 11.8175 21.2455 11.7892 21.1938 11.78C21.1421 11.7707 21.0889 11.7812 21.0445 11.8093L11.0146 18.1574L6.69492 16.7067C6.58006 16.6681 6.47996 16.5949 6.40834 16.4972C6.33672 16.3995 6.2971 16.2819 6.29491 16.1608C6.29272 16.0397 6.32806 15.9208 6.3961 15.8205C6.46414 15.7203 6.56153 15.6435 6.67492 15.6008L23.5762 9.234C23.7065 9.18494 23.8477 9.1718 23.9849 9.19596C24.1221 9.22012 24.2503 9.28069 24.356 9.37134C24.4618 9.462 24.5413 9.57939 24.5861 9.71127C24.631 9.84314 24.6396 9.98465 24.6111 10.121Z" fill="#688CEC"/>
</g>
<defs>
<clipPath id="clip0_143_982">
<rect width="32" height="32" fill="white" transform="translate(0.294922)"/>
</clipPath>
</defs>
</svg>
